<svg xmlns="http://www.w3.org/2000/svg" xmlns:xlink="http://www.w3.org/1999/xlink" version="1.1" id="Layer_1" x="0px" y="0px" width="100px" height="100px" viewBox="5.0 -10.0 100.0 135.0" enable-background="new 0 0 100 100" xml:space="preserve">
<rect fill="none" width="100" height="100"/>
<path d="M73.912,66.705c-11.486-0.859-21.729-7.829-26.731-18.186c-5-10.359-4.082-22.715,2.389-32.244  c0.683-1.004,0.776-2.292,0.251-3.383c-0.528-1.095-1.597-1.822-2.804-1.912c-6.841-0.515-13.663,0.772-19.904,3.782  C7.685,24.141-0.489,47.573,8.885,67.005c6.49,13.437,20.333,22.125,35.26,22.125c5.911,0,11.626-1.316,16.979-3.901  c6.188-2.984,11.496-7.559,15.343-13.231c0.683-1.004,0.773-2.288,0.248-3.383C76.188,67.526,75.119,66.795,73.912,66.705z   M58.174,79.112c-4.43,2.141-9.148,3.226-14.028,3.226c-12.339,0-23.777-7.179-29.147-18.285  C7.253,47.995,14.01,28.628,30.064,20.879c3.451-1.667,7.089-2.694,10.843-3.062c-4.955,10.572-4.99,22.989,0.158,33.654  c5.15,10.665,14.89,18.359,26.242,21.061C64.683,75.229,61.592,77.464,58.174,79.112z M93.823,27.868l-3.467,1.127l2.141,2.955  c0.55,0.757,0.386,1.819-0.37,2.37c-0.307,0.219-0.65,0.325-1.002,0.325c-0.521,0-1.039-0.242-1.374-0.702l-2.141-2.952  l-2.147,2.952c-0.332,0.46-0.85,0.702-1.371,0.702c-0.352,0-0.699-0.106-1.002-0.325c-0.756-0.551-0.924-1.613-0.373-2.37  l2.147-2.955l-3.474-1.127c-0.892-0.29-1.381-1.249-1.092-2.137c0.287-0.892,1.256-1.384,2.141-1.095l3.471,1.13v-3.65  c0-0.94,0.76-1.697,1.7-1.697c0.937,0,1.696,0.757,1.696,1.697v3.65l3.471-1.13c0.895-0.29,1.851,0.203,2.141,1.095  C95.204,26.619,94.722,27.579,93.823,27.868z M59.223,23.487c0.29-0.888,1.249-1.381,2.141-1.091l2.663,0.869v-2.804  c0-0.937,0.76-1.7,1.699-1.7c0.94,0,1.696,0.763,1.696,1.7v2.804l2.669-0.869c0.889-0.29,1.852,0.203,2.141,1.091  c0.287,0.892-0.199,1.848-1.091,2.141l-2.666,0.866l1.648,2.27c0.551,0.757,0.387,1.819-0.377,2.37  c-0.299,0.219-0.646,0.325-0.994,0.325c-0.525,0-1.043-0.242-1.375-0.699l-1.651-2.273l-1.645,2.273  c-0.335,0.457-0.854,0.699-1.378,0.699c-0.345,0-0.695-0.106-0.998-0.325c-0.757-0.551-0.924-1.61-0.374-2.37l1.651-2.27  l-2.668-0.866C59.423,25.335,58.937,24.379,59.223,23.487z M79.04,46.218c0.29,0.895-0.196,1.851-1.088,2.141l-2.965,0.962  l1.835,2.521c0.547,0.757,0.383,1.819-0.377,2.369c-0.302,0.223-0.646,0.329-0.998,0.329c-0.524,0-1.039-0.245-1.371-0.702  l-1.835-2.523l-1.831,2.523c-0.332,0.457-0.851,0.702-1.375,0.702c-0.348,0-0.698-0.106-0.998-0.329  c-0.76-0.55-0.927-1.612-0.377-2.369l1.835-2.521l-2.965-0.962c-0.892-0.29-1.378-1.246-1.091-2.141  c0.289-0.888,1.255-1.381,2.141-1.088l2.965,0.962v-3.119c0-0.937,0.757-1.7,1.696-1.7c0.937,0,1.7,0.763,1.7,1.7v3.119l2.962-0.962  C77.791,44.837,78.757,45.33,79.04,46.218z"/>
<text x="0.0" y="117.5" font-size="5.0" font-weight="bold" font-family="Helvetica Neue, Helvetica, Arial-Unicode, Arial, Sans-serif" fill="#000000">Created by hunotika</text><text x="0.0" y="122.5" font-size="5.0" font-weight="bold" font-family="Helvetica Neue, Helvetica, Arial-Unicode, Arial, Sans-serif" fill="#000000">from the Noun Project</text></svg>