<svg xmlns="http://www.w3.org/2000/svg" xmlns:xlink="http://www.w3.org/1999/xlink" version="1.1" id="Layer_1" x="0px" y="0px" width="100px" height="100px" viewBox="5.0 -10.0 100.0 135.0" enable-background="new 0 0 100 100" xml:space="preserve">
<rect fill="none" width="100" height="100"/>
<path d="M50.003,23.074c-14.852,0-26.932,12.077-26.932,26.923c0,14.858,12.08,26.936,26.932,26.936  c14.85,0,26.93-12.077,26.93-26.936C76.933,35.151,64.853,23.074,50.003,23.074z M50.003,70.574  c-11.341,0-20.568-9.229-20.568-20.577c0-11.335,9.227-20.559,20.568-20.559c11.342,0,20.568,9.224,20.568,20.559  C70.571,61.345,61.345,70.574,50.003,70.574z M48.411,16.8V6.593C48.411,5.718,49.125,5,50.003,5c0.881,0,1.59,0.718,1.59,1.593  V16.8c0,0.881-0.709,1.592-1.59,1.592C49.125,18.392,48.411,17.681,48.411,16.8z M26.919,13.204c-0.44-0.76-0.178-1.731,0.582-2.178  c0.76-0.434,1.734-0.175,2.172,0.585l5.106,8.844c0.44,0.76,0.178,1.731-0.582,2.171c-0.25,0.145-0.525,0.217-0.796,0.217  c-0.546,0-1.086-0.283-1.375-0.796L26.919,13.204z M22.627,34.198c-0.292,0.513-0.829,0.796-1.375,0.796  c-0.271,0-0.546-0.073-0.796-0.211l-8.844-5.109c-0.76-0.435-1.022-1.412-0.582-2.166c0.44-0.76,1.415-1.019,2.171-0.585  l8.844,5.104C22.808,32.466,23.067,33.438,22.627,34.198z M16.8,51.59H6.589C5.712,51.59,5,50.878,5,49.997  c0-0.875,0.712-1.586,1.589-1.586H16.8c0.881,0,1.592,0.711,1.592,1.586C18.392,50.878,17.681,51.59,16.8,51.59z M22.627,65.809  c0.44,0.76,0.181,1.731-0.582,2.172l-8.844,5.104c-0.25,0.15-0.525,0.217-0.793,0.217c-0.549,0-1.086-0.289-1.378-0.803  c-0.44-0.76-0.178-1.725,0.582-2.171l8.844-5.104C21.212,64.783,22.19,65.042,22.627,65.809z M34.78,79.551l-5.106,8.844  c-0.292,0.513-0.83,0.796-1.375,0.796c-0.271,0-0.546-0.072-0.796-0.217c-0.76-0.44-1.022-1.412-0.582-2.172l5.106-8.844  c0.438-0.76,1.409-1.014,2.172-0.585C34.958,77.813,35.22,78.784,34.78,79.551z M51.593,83.2v10.207c0,0.881-0.709,1.593-1.59,1.593  c-0.877,0-1.592-0.712-1.592-1.593V83.2c0-0.881,0.715-1.593,1.592-1.593C50.884,81.607,51.593,82.319,51.593,83.2z M73.081,86.802  c0.443,0.76,0.181,1.731-0.579,2.172c-0.254,0.145-0.525,0.217-0.797,0.217c-0.546,0-1.083-0.283-1.375-0.796l-5.106-8.844  c-0.44-0.767-0.182-1.737,0.582-2.178c0.757-0.44,1.734-0.182,2.172,0.585L73.081,86.802z M88.974,72.498  c-0.293,0.514-0.833,0.803-1.379,0.803c-0.269,0-0.54-0.066-0.796-0.217l-8.841-5.104c-0.76-0.44-1.022-1.412-0.582-2.172  c0.438-0.761,1.414-1.02,2.172-0.585l8.841,5.104C89.154,70.773,89.414,71.738,88.974,72.498z M95,49.997  c0,0.881-0.715,1.593-1.59,1.593H83.2c-0.881,0-1.593-0.712-1.593-1.593c0-0.875,0.712-1.586,1.593-1.586h10.21  C94.285,48.411,95,49.122,95,49.997z M77.376,34.198c-0.44-0.76-0.178-1.731,0.582-2.172l8.841-5.104  c0.757-0.446,1.731-0.181,2.175,0.585c0.44,0.754,0.181,1.731-0.585,2.166l-8.841,5.109c-0.254,0.139-0.525,0.211-0.797,0.211  C78.205,34.994,77.668,34.71,77.376,34.198z M65.224,20.456l5.109-8.844c0.435-0.76,1.411-1.014,2.172-0.585  c0.76,0.447,1.02,1.418,0.579,2.178l-5.106,8.844c-0.293,0.513-0.83,0.796-1.379,0.796c-0.269,0-0.543-0.072-0.793-0.217  C65.042,22.187,64.783,21.215,65.224,20.456z"/>
<!-- <text x="0.0" y="117.5" font-size="5.0" font-weight="bold" font-family="Helvetica Neue, Helvetica, Arial-Unicode, Arial, Sans-serif" fill="#000000">Created by hunotika</text><text x="0.0" y="122.5" font-size="5.0" font-weight="bold" font-family="Helvetica Neue, Helvetica, Arial-Unicode, Arial, Sans-serif" fill="#000000">from the Noun Project</text> --></svg>