<svg xmlns="http://www.w3.org/2000/svg" xmlns:xlink="http://www.w3.org/1999/xlink" version="1.1" width="96" height="96" viewBox="4.8 -9.6 96.0 129.6">
<path d="M74 63h-52c-1.104 0-2-0.9-2-2 0-15.436 12.56-28 28-28 15.436 0 28 12.564 28 28 0 1.1-0.9 2-2 2zM24.084 59h47.836c-1.024-12.3-11.36-22-23.916-22-12.56 0-22.904 9.7-23.92 22z" fill="#333"/>
	<path d="M86 63h-76c-1.104 0-2-0.9-2-2s0.896-2 2-2h76c1.1 0 2 0.9 2 2s-0.9 2-2 2z" fill="#333"/>
<!-- <text x="0.0" y="112.8" font-size="4.8" font-weight="bold" font-family="Helvetica Neue, Helvetica, Arial-Unicode, Arial, Sans-serif" fill="#000000">Created by iconsmind.com</text><text x="0.0" y="117.6" font-size="4.8" font-weight="bold" font-family="Helvetica Neue, Helvetica, Arial-Unicode, Arial, Sans-serif" fill="#000000">from the Noun Project</text> --></svg>