<svg xmlns="http://www.w3.org/2000/svg" xmlns:xlink="http://www.w3.org/1999/xlink" version="1.1" id="Layer_1" x="0px" y="0px" width="100px" height="100px" viewBox="2.5 -5.0 50.0 67.5" enable-background="new 0 0 50 50" xml:space="preserve">
<g id="hot_x5F_drink">
	<path fill="#333" d="M36.225,26.219h-1.141v-2.657h-0.127c0.073-0.263,0.127-0.528,0.127-0.812c0-7.153-24.671-7.153-24.671,0   l-0.008,20.15c0,3.575,6.211,5.448,12.351,5.448c6.047,0,12.169-1.823,12.324-5.446v-1.523h1.146c4.162,0,7.554-3.401,7.554-7.581   S40.387,26.219,36.225,26.219z M22.748,19.723c6.418,0,9.914,2,9.914,3.026c0,1.027-3.496,3.027-9.914,3.027   c-6.415,0-9.915-2-9.915-3.027C12.833,21.724,16.333,19.723,22.748,19.723z M22.755,45.927c-6.251,0-9.737-1.892-9.922-3.044   V26.118c2.367,1.371,6.151,2.081,9.915,2.081c3.762,0,7.546-0.707,9.914-2.081l-0.003,16.781   C32.659,43.928,29.166,45.927,22.755,45.927z M36.225,38.956h-1.143l0.002-10.317h1.141c2.83,0,5.134,2.314,5.134,5.158   C41.358,36.642,39.055,38.956,36.225,38.956z"/>
	<path fill="#333" d="M16.757,13.368c-0.293,0.38-0.658,0.851-0.958,1.462l2.172,1.071c0.207-0.42,0.469-0.75,0.703-1.053   c1.176-1.528,1.876-2.957-0.664-6.189c-0.513-0.653-0.707-1.287-0.598-1.942c0.237-1.386,1.791-2.648,2.37-3.02l-1.295-2.045   C18.181,1.847,15.492,3.61,15.032,6.3c-0.233,1.331,0.141,2.663,1.077,3.854C17.685,12.165,17.472,12.446,16.757,13.368z"/>
	<path fill="#333" d="M21.941,13.368c-0.293,0.38-0.654,0.851-0.955,1.462l2.168,1.071c0.208-0.42,0.471-0.75,0.705-1.053   c1.178-1.528,1.877-2.957-0.662-6.189c-0.514-0.653-0.708-1.287-0.598-1.942c0.234-1.386,1.788-2.648,2.367-3.02l-1.296-2.045   c-0.304,0.194-2.99,1.958-3.455,4.647c-0.229,1.331,0.142,2.663,1.082,3.854C22.869,12.165,22.653,12.446,21.941,13.368z"/>
	<path fill="#333" d="M26.946,13.368c-0.294,0.38-0.657,0.851-0.958,1.462l2.169,1.071c0.208-0.42,0.471-0.75,0.706-1.053   c1.175-1.528,1.873-2.957-0.665-6.189c-0.515-0.653-0.707-1.287-0.599-1.942c0.235-1.386,1.79-2.648,2.368-3.02l-1.294-2.045   C28.37,1.847,25.68,3.61,25.219,6.3c-0.232,1.331,0.142,2.663,1.08,3.854C27.871,12.165,27.658,12.446,26.946,13.368z"/>
</g>
<!-- <text x="0.0" y="58.75" font-size="2.5" font-weight="bold" font-family="Helvetica Neue, Helvetica, Arial-Unicode, Arial, Sans-serif" fill="#000000">Created by Lubo&#353; Volkov</text><text x="0.0" y="61.25" font-size="2.5" font-weight="bold" font-family="Helvetica Neue, Helvetica, Arial-Unicode, Arial, Sans-serif" fill="#000000">from the Noun Project</text> --></svg>