<svg xmlns="http://www.w3.org/2000/svg" xmlns:xlink="http://www.w3.org/1999/xlink" version="1.1" id="Layer_1" x="0px" y="0px" width="100px" height="100px" viewBox="4.5 -9.0 90.0 121.5" enable-background="new 0 0 90 90" xml:space="preserve">
<path fill= "#333" d="M74.5,1.7c-0.5-0.5-1.3-0.4-1.7,0.1l-2.3,2.6c0.3,0.2,0.7,0.4,1,0.7c-2.7-2.3-6.6-2.5-8.3-0.5c-0.9,1.1-1.2,2.6-0.7,4.2  c0.3,1,0.8,2,1.6,2.8l-4.5,5C53.5,16.1,47,16,43.9,16c-6.6,0-28.3,0.4-28.3,5.2c0,0.2,0,0.4,0.1,0.6c0.1,0.4,0.4,0.8,0.9,1.1  l26.1,25c0,0,0.1,0,0.1,0.1v31.1c-6.5,0.2-13.1,1.8-13.1,5.1c0,3.5,7.3,5.2,14.1,5.2S58,87.8,58,84.3c0-3.4-6.6-5-13-5.1V48  c0,0,0.1,0,0.1-0.1l26.8-25.6c0.3-0.3,0.4-0.6,0.4-1c0,0,0-0.1,0-0.1c0-2.1-4.4-3.4-9.8-4.1l3.4-3.8c1.3,0.9,2.8,1.4,4.2,1.4  c1.4,0,2.6-0.5,3.4-1.5c0.9-1.1,1.2-2.6,0.7-4.2C73.8,8,73.1,6.9,72.3,6l2.3-2.5C75,3,75,2.2,74.5,1.7z M18.9,21  c3-1.1,12.1-2.4,25-2.4c5.1,0,9.7,0.2,13.5,0.5l-4,4.5c-2.8,0.2-6,0.2-9.4,0.2c-13,0-22.1-1.3-25-2.4C18.7,21.4,18.7,21.1,18.9,21z   M55.5,84.3c0,0.7-4,2.7-11.7,2.7c-7.7,0-11.7-2-11.7-2.7c0-0.7,4-2.7,11.7-2.7C51.5,81.5,55.5,83.6,55.5,84.3z M43.9,45.6L22,24.8  c0.9,0.2,1.9,0.3,3,0.5c5.1,0.7,11.8,1.1,18.9,1.1c1.6,0,4.2,0,7.1-0.1l-5.4,6c-0.5,0.5-0.4,1.3,0.1,1.7c0.2,0.2,0.5,0.3,0.8,0.3  c0.3,0,0.7-0.1,0.9-0.4l7-7.8c3.9-0.2,8-0.6,11.3-1.3L43.9,45.6z M68.8,20.9c0.2,0.1,0.2,0.4,0,0.5c-1.9,0.7-6.1,1.4-12,1.9l3.6-4  C64.4,19.8,67.3,20.4,68.8,20.9z M71.5,11.7c-0.4,0.5-1.1,0.6-1.5,0.6c-1.1,0-2.3-0.5-3.3-1.4c-0.9-0.8-1.6-1.8-1.9-2.7  c-0.1-0.5-0.3-1.3,0.2-1.9c0.4-0.5,1.1-0.6,1.5-0.6c1.1,0,2.3,0.5,3.3,1.4c0.9,0.8,1.6,1.8,1.9,2.7C71.8,10.2,72,11.1,71.5,11.7z"/>
<!-- <text x="0.0" y="105.75" font-size="4.5" font-weight="bold" font-family="Helvetica Neue, Helvetica, Arial-Unicode, Arial, Sans-serif" fill="#000000">Created by Y E J I N</text><text x="0.0" y="110.25" font-size="4.5" font-weight="bold" font-family="Helvetica Neue, Helvetica, Arial-Unicode, Arial, Sans-serif" fill="#000000">from the Noun Project</text> --></svg>